PathFileType	4	(X/Y/Z)	C:/Users/beibeiliu/ov580/test_trc/User3\sequence.34_training_dense_right.trc
DataRate	CameraRate	NumFrames	NumMarkers	Units	OrigDataRate	OrigDataStartFrame	OrigNumFrames
120	120	8	19	mm	120	76	126
Frame#	Time	ThumbCMC			ThumbMCP			ThumbIP			ThumbTip			IndexMCP			IndexPIP			IndexTip			MiddleMCP			MiddlePIP			MiddleTip			RingMCP			RingPIP			RingTip			PinkyMCP			PinkyPIP			PinkyTip			BackHand1			BackHand2			BackHand3	
		X0	Y0	Z0	X1	Y1	Z1	X2	Y2	Z2	X3	Y3	Z3	X4	Y4	Z4	X5	Y5	Z5	X6	Y6	Z6	X7	Y7	Z7	X8	Y8	Z8	X9	Y9	Z9	X10	Y10	Z10	X11	Y11	Z11	X12	Y12	Z12	X13	Y13	Z13	X14	Y14	Z14	X15	Y15	Z15	X16	Y16	Z16	X17	Y17	Z17	X18	Y18	Z18	
75	0.625	205.841	-24.0455	33.6405	217.748	-14.214	8.02521	218.951	-7.0148	-20.413	213.697	-1.71202	-47.3188	185.116	-35.0761	-41.76	180.824	-16.8963	-63.5832	174.489	6.49244	-76.3776	166.933	-42.8401	-41.0083	159.259	-23.6326	-67.1677	148.711	5.39314	-84.5813	144.47	-46.62	-34.3376	139.568	-37.2671	-54.0889	129.165	-17.3409	-74.0581	128.725	-49.6793	-11.0981	118.489	-47.1354	-32.3537	109.84	-36.2485	-56.6617	153.806	-62.9789	19.5745	158.652	-59.9376	51.3564	191.494	-56.2678	27.6763	
76	0.633333	204.777	-25.275	33.6244	215.686	-16.6704	1.93942	216.019	-8.80226	-23.8273	214.026	-1.36215	-47.6643	182.709	-40.0351	-40.1072	182.463	-19.923	-64.9642	168.79	5.90315	-78.7722	165.146	-44.6104	-44.544	156.28	-27.1521	-68.379	149.969	0.344532	-84.556	146.725	-49.1381	-32.7035	136.404	-38.0363	-59.0122	128.288	-19.7828	-76.0186	129.589	-51.5804	-13.7364	119.1	-49.8359	-34.7454	111.898	-39.0858	-59.6927	156.193	-62.7956	22.1095	155.968	-65.0065	47.6137	188.893	-56.8314	31.4083	
77	0.641667	204.239	-27.5699	31.7645	210.944	-17.7641	4.98249	214.437	-11.5252	-23.9599	209.96	-4.18747	-48.3053	184.534	-40.1182	-45.6577	178.193	-22.0251	-65.9393	166.315	0.188924	-78.9817	161.486	-47.2778	-45.5291	157.697	-30.3717	-67.8914	144.346	-3.6585	-85.5195	140.361	-52.7133	-37.2632	137.861	-42.0176	-57.3188	129.064	-24.8574	-76.6623	123.462	-55.4175	-13.9623	114.06	-52.0904	-37.0775	105.85	-40.0441	-59.8895	153.791	-65.719	18.2008	153.745	-65.4391	46.668	184.474	-59.1131	28.1732	
78	0.65	202.333	-29.9204	33.2589	211.696	-19.8446	6.04385	212.415	-15.0496	-29.4374	202.153	-10.1088	-49.6752	179.083	-44.7516	-40.6397	176.753	-26.1918	-66.2385	163.713	-3.90091	-79.1646	159.638	-52.2972	-42.0669	149.905	-35.6297	-67.1266	142.356	-8.32421	-85.3457	138.055	-55.9934	-34.6817	129.54	-46.2832	-58.2863	123.016	-27.1687	-76.9285	120.974	-59.3675	-16.7783	110.833	-56.7883	-34.346	105.288	-47.41	-57.4869	152.68	-70.805	19.8311	156.936	-69.1704	49.914	183.225	-61.8285	27.2886	
79	0.658333	198.554	-31.9571	30.0587	208.602	-23.6721	2.66147	206.84	-17.1172	-23.3571	198.767	-13.9524	-48.3999	177.203	-46.035	-45.6849	167.878	-29.6146	-68.0731	162.948	-5.95219	-80.1283	157.169	-55.4765	-43.5209	148.097	-39.7509	-67.4218	137.816	-8.70009	-88.1804	137.968	-59.6875	-31.6634	128.416	-49.9625	-58.606	118.109	-29.9858	-78.2727	117.113	-63.9342	-15.1068	112.445	-60.3287	-35.9306	98.6139	-51.143	-58.4844	150.089	-73.2339	21.3554	154.493	-71.4432	47.443	182.137	-62.5525	28.6366	
80	0.666667	195.701	-35.3119	30.4096	204.568	-26.9967	-0.856462	204.415	-20.7213	-27.9021	200.075	-14.4225	-51.5691	169.952	-51.7568	-45.8898	166.358	-33.4945	-68.5264	157.506	-10.3711	-81.386	150.531	-58.2646	-44.9118	141.552	-43.0915	-68.7292	135.998	-14.8799	-87.6398	133.324	-63.6716	-32.2021	125.668	-53.593	-56.3148	116.073	-35.585	-78.3716	117.318	-66.0136	-14.6406	105.192	-63.3258	-37.3795	95.3349	-52.1254	-59.6836	147.705	-75.3114	20.7347	149.766	-72.4175	48.1206	178.733	-65.0779	28.2204	
81	0.675	192.765	-36.9256	29.2442	200.678	-28.3847	0.468904	202.619	-23.0383	-28.1497	192.798	-19.1821	-49.3851	170.784	-53.1043	-45.9997	164.665	-35.4405	-68.3482	155.685	-11.4759	-82.7386	145.348	-60.8438	-47.08	137.821	-42.245	-70.0028	133.253	-15.7685	-87.8174	128.782	-65.8035	-34.1283	123.231	-55.1855	-59.2205	109.724	-37.9832	-78.0921	113.193	-68.0935	-15.7394	101.679	-65.8295	-36.1776	93.9248	-58.323	-57.7751	143.631	-76.4324	22.8986	143.993	-75.486	50.8677	172.285	-69.2643	28.1192	
82	0.683333	194.299	-38.6323	28.2979	199.672	-31.0624	0.595483	198.513	-26.9827	-28.9336	192.517	-21.608	-51.0836	165.503	-55.3334	-45.2454	162.105	-39.6007	-66.4765	153.019	-18.2481	-78.8654	147.039	-62.9731	-43.8352	143.031	-47.9038	-66.6165	130.511	-17.1271	-88.3466	128.942	-67.3628	-34.5013	122.389	-56.2625	-58.6531	111.904	-41.17	-75.5545	113.78	-69.6742	-11.9477	101.163	-67.9909	-34.6875	94.5616	-61.206	-55.4749	140.48	-80.0721	19.1812	145.551	-78.3185	48.1068	173.037	-70.602	25.9214	
